<svg xmlns="http://www.w3.org/2000/svg" viewBox="0 0 50 50" width="50" height="50">
    <path style="text-indent:0;text-align:start;line-height:normal;text-transform:none;block-progression:tb;-inkscape-font-specification:Sans" d="M 12.8125 5 A 1.001098 1.001098 0 0 0 13 7 L 37 7 A 1.0001 1.0001 0 1 0 37 5 L 13 5 A 1.0001 1.0001 0 0 0 12.90625 5 A 1.001098 1.001098 0 0 0 12.8125 5 z M 7.8125 9 A 1.001098 1.001098 0 0 0 8 11 L 42 11 A 1.0001 1.0001 0 1 0 42 9 L 8 9 A 1.0001 1.0001 0 0 0 7.90625 9 A 1.001098 1.001098 0 0 0 7.8125 9 z M 3 13 C 2.447 13 2 13.448 2 14 L 2 44 C 2 44.552 2.447 45 3 45 L 47 45 C 47.553 45 48 44.552 48 44 L 48 14 C 48 13.448 47.553 13 47 13 L 3 13 z M 20.1875 23 L 30.8125 29 L 20.1875 35 L 20.1875 23 z" color="#000" overflow="visible" font-family="Sans"/>
</svg>